<svg width="43" height="44" viewBox="0 0 43 44" fill="none" xmlns="http://www.w3.org/2000/svg">
<rect x="0.899414" y="0.462891" width="41.3055" height="43.0058" rx="8" fill="#F9AA01"/>
<path d="M23.5875 8.55176C22.7474 7.80176 21.3832 7.80176 20.5432 8.55176L9.79067 18.1518C8.95064 18.9018 8.95064 20.1198 9.79067 20.8698C10.6307 21.6198 11.9949 21.6198 12.835 20.8698L19.9182 14.5398V32.9479C19.9182 34.0099 20.8792 34.8679 22.0687 34.8679C23.2582 34.8679 24.2192 34.0099 24.2192 32.9479V14.5398L31.3024 20.8638C32.1424 21.6138 33.5066 21.6138 34.3467 20.8638C35.1867 20.1138 35.1867 18.8958 34.3467 18.1458L23.5942 8.54576L23.5875 8.55176Z" fill="#1B1426"/>
</svg>
