<svg width="42" height="44" viewBox="0 0 42 44" fill="none" xmlns="http://www.w3.org/2000/svg">
<rect x="0.625977" y="0.271484" width="41.3055" height="43.0058" rx="8" fill="#F9AA01"/>
<path d="M32.8587 7.79785H10.725C9.71076 7.79785 8.88672 8.66781 8.88672 9.73575V32.7386C8.88672 33.8065 9.71076 34.6765 10.725 34.6765H32.8587C33.8729 34.6765 34.7027 33.8065 34.7027 32.7386V9.73575C34.7027 8.66781 33.8729 7.79785 32.8587 7.79785ZM16.6891 30.8367H12.8628V18.0093H16.6949V30.8367H16.6891ZM14.776 16.2574C13.5486 16.2574 12.5574 15.2195 12.5574 13.9475C12.5574 12.6756 13.5486 11.6377 14.776 11.6377C15.9976 11.6377 16.9945 12.6756 16.9945 13.9475C16.9945 15.2255 16.0034 16.2574 14.776 16.2574V16.2574ZM31.032 30.8367H27.2057V24.597C27.2057 23.1091 27.1769 21.1952 25.2176 21.1952C23.2238 21.1952 22.9184 22.8151 22.9184 24.489V30.8367H19.0921V18.0093H22.7628V19.7612H22.8147C23.3275 18.7533 24.578 17.6913 26.4393 17.6913C30.3117 17.6913 31.032 20.3492 31.032 23.805V30.8367V30.8367Z" fill="#1B1426"/>
</svg>
