<svg width="30" height="31" viewBox="0 0 30 31" fill="none" xmlns="http://www.w3.org/2000/svg">
<path opacity="0.3" d="M0.5 3.44405C0.5 2.26913 1.3017 1.45312 2.14286 1.45312H27.8571C28.6983 1.45312 29.5 2.26913 29.5 3.44405C29.5 4.61897 28.6983 5.43498 27.8571 5.43498H2.14286C1.3017 5.43498 0.5 4.61897 0.5 3.44405ZM0.5 15.8987C0.5 14.7238 1.3017 13.9078 2.14286 13.9078H27.8571C28.6983 13.9078 29.5 14.7238 29.5 15.8987C29.5 17.0736 28.6983 17.8896 27.8571 17.8896H2.14286C1.3017 17.8896 0.5 17.0736 0.5 15.8987ZM29.5 28.3533C29.5 29.5282 28.6983 30.3443 27.8571 30.3443H2.14286C1.3017 30.3443 0.5 29.5282 0.5 28.3533C0.5 27.1784 1.3017 26.3624 2.14286 26.3624H27.8571C28.6983 26.3624 29.5 27.1784 29.5 28.3533Z" fill="white" stroke="black"/>
</svg>
